<?xml version="1.0" encoding="utf-8"?>
<!-- Generator: Adobe Illustrator 18.1.1, SVG Export Plug-In . SVG Version: 6.00 Build 0)  -->
<svg version="1.1" id="Layer_1" xmlns="http://www.w3.org/2000/svg" xmlns:xlink="http://www.w3.org/1999/xlink" x="0px" y="0px"
   width="1289px" height="713px" viewBox="0 0 1289 713" enable-background="new 0 0 1289 713" xml:space="preserve">
<path fill-rule="evenodd" clip-rule="evenodd" fill="#FFFFFF" d="M1279.6,653.7h-128.3V49.9c0-26.4-21.7-47.9-48.3-47.9H185.9
  c-26.6,0-48.3,21.5-48.3,47.9v603.8H9.4c-4.1,0-7.4,2.9-7.4,6.4v21.2C2,691.7,42,711,99.1,711h1090.8c67.2,0,97.1-20.8,97.1-28.7
  v-22.2C1287,656.6,1283.7,653.7,1279.6,653.7z"/>
<g>
  <path fill="#043f8b" d="M646.3,27.8c-5.1,0-9.3,4.2-9.3,9.3c0,5.1,4.2,9.3,9.3,9.3c5.1,0,9.3-4.2,9.3-9.3
    C655.5,32,651.4,27.8,646.3,27.8z M646.3,42.7c-3.1,0-5.6-2.5-5.6-5.6c0-3.1,2.5-5.6,5.6-5.6c3.1,0,5.6,2.5,5.6,5.6
    C651.8,40.2,649.3,42.7,646.3,42.7z"/>
  <path fill="#043f8b" d="M1281.6,651.7h-128.3V47.9c0-26.4-21.7-47.9-48.3-47.9H183.9c-26.6,0-48.3,21.5-48.3,47.9v603.8H7.4
    c-4.1,0-7.4,2.9-7.4,6.4v25.2C0,693.7,40,713,97.1,713h1094.8c67.2,0,97.1-20.8,97.1-28.7v-26.2
    C1289,654.6,1285.7,651.7,1281.6,651.7z M139.3,47.9c0-23.9,20.4-44.2,44.6-44.2H1105c24.6,0,44.6,19.8,44.6,44.2v603.8H139.3V47.9
    z M506.1,655.5h276.7v5.7c0,3-6.8,4.4-13.2,4.4H519.6c-6.8,0-13.6-1.4-13.6-4.4V655.5z M1285.3,684.3c0,5.1-29,25-93.4,25H97.1
    c-59.4,0-93.4-20.4-93.4-26v-1.9h1280.9v-1.9H3.7v-21.5c0-1.4,1.7-2.7,3.7-2.7h128.1v0.1h368.6v5.7c0,5.8,11.8,6.2,15.4,6.2h249.9
    c3.5,0,15.1-0.5,15.1-6.2v-5.7h368.6v-0.1h128.3c2,0,3.7,1.2,3.7,2.7V684.3z"/>
</g>
</svg>