<?xml version="1.0" encoding="utf-8"?>
<!-- Generator: Adobe Illustrator 19.2.1, SVG Export Plug-In . SVG Version: 6.00 Build 0)  -->
<svg version="1.1" xmlns="http://www.w3.org/2000/svg" xmlns:xlink="http://www.w3.org/1999/xlink" x="0px" y="0px" width="1000px"
	 height="1000px" viewBox="450 -222 1000 1000" enable-background="new 450 -222 1000 1000" xml:space="preserve">
<g id="Layer_2" display="none">
	<rect x="450" y="-222" display="inline" fill="#FF03F9" width="1000" height="1000"/>
	<rect x="450" y="387" display="inline" fill-rule="evenodd" clip-rule="evenodd" width="21" height="21"/>
	<rect x="450" y="408" display="inline" fill="#E60900" width="60" height="60"/>
	<rect x="510" y="408" display="inline" fill="#613C00" width="60" height="60"/>
	<rect x="570" y="408" display="inline" fill="#44C200" width="60" height="60"/>
</g>
<g id="Layer_1">
	<path fill="#F70C36" d="M535.5,204.4c-0.6,0-1.2-0.1-1.7-0.3c-6.8-2.4-12.3-8-14.5-14.9c-0.7-2.1,0-4.4,1.8-5.7l1.1-0.8
		c0.6-0.5,1.3-0.7,2.1-0.7c1.3,0,2.5,0.7,3.1,1.9l1.9,3.6c0.2,0.3,0.3,0.7,0.3,1.1c0,0.6-0.2,1.2-0.6,1.7l-0.4,0.4
		c-0.4,0.4-0.5,1-0.2,1.6c0.6,1.2,1.6,2.2,2.9,2.9c0.5,0.3,1.1,0.2,1.6-0.2l0.4-0.4c0.7-0.7,1.9-0.8,2.8-0.4l3.6,1.9
		c1.2,0.6,1.9,1.8,1.9,3.1c0,0.9-0.4,1.8-1,2.5l-1.3,1.3C538.2,203.9,536.8,204.4,535.5,204.4z M524.3,184.1c-0.3,0-0.6,0.1-0.8,0.3
		l-1.1,0.8c-1,0.8-1.4,2.1-1.1,3.4c2,6.3,7,11.4,13.2,13.6c1.1,0.4,2.4,0.1,3.2-0.7l1.3-1.3c0.3-0.3,0.4-0.6,0.4-1
		c0-0.5-0.3-1-0.8-1.2l-3.6-1.9c-0.1-0.1-0.3,0-0.4,0.1l-0.4,0.4c-1,1-2.7,1.2-3.9,0.5c-1.6-0.8-2.9-2.1-3.8-3.8
		c-0.7-1.3-0.5-2.9,0.5-3.9l0.4-0.4c0,0,0.1-0.1,0.1-0.2c0-0.1,0-0.1,0-0.2l-1.9-3.6C525.3,184.4,524.8,184.1,524.3,184.1z"/>
	<path fill="#F70C36" d="M497.4,182c-0.8,0-1.4,0.6-1.4,1.4v15.4c0,0.8,0.6,1.4,1.4,1.4H517c0.8,0,1.4-0.6,1.4-1.4v-15.4
		c0-0.8-0.6-1.4-1.4-1.4H497.4z M516.3,184.1v0.6l-9.1,7.7l-9.1-7.7v-0.6H516.3z M498.1,198.1v-10.7l8.2,6.9
		c0.3,0.2,0.6,0.3,0.9,0.3c0.3,0,0.6-0.1,0.9-0.3l8.2-6.9v10.7H498.1z"/>
	<path fill="#FFFFFF" d="M489.5,204.4c-0.6,0-1.2-0.1-1.7-0.3c-6.8-2.4-12.3-8-14.5-14.9c-0.7-2.1,0-4.4,1.8-5.7l1.1-0.8
		c0.6-0.5,1.3-0.7,2.1-0.7c1.3,0,2.5,0.7,3.1,1.9l1.9,3.6c0.2,0.3,0.3,0.7,0.3,1.1c0,0.6-0.2,1.2-0.6,1.7l-0.4,0.4
		c-0.4,0.4-0.5,1-0.2,1.6c0.6,1.2,1.6,2.2,2.9,2.9c0.5,0.3,1.1,0.2,1.6-0.2l0.4-0.4c0.7-0.7,1.9-0.8,2.8-0.4l3.6,1.9
		c1.2,0.6,1.9,1.8,1.9,3.1c0,0.9-0.4,1.8-1,2.5l-1.3,1.3C492.2,203.9,490.8,204.4,489.5,204.4z M478.3,184.1c-0.3,0-0.6,0.1-0.8,0.3
		l-1.1,0.8c-1,0.8-1.4,2.1-1.1,3.4c2,6.3,7,11.4,13.2,13.6c1.1,0.4,2.4,0.1,3.2-0.7l1.3-1.3c0.3-0.3,0.4-0.6,0.4-1
		c0-0.5-0.3-1-0.8-1.2l-3.6-1.9c-0.1-0.1-0.3,0-0.4,0.1l-0.4,0.4c-1,1-2.7,1.2-3.9,0.5c-1.6-0.8-2.9-2.1-3.8-3.8
		c-0.7-1.3-0.5-2.9,0.5-3.9l0.4-0.4c0,0,0.1-0.1,0.1-0.2c0-0.1,0-0.1,0-0.2l-1.9-3.6C479.3,184.4,478.8,184.1,478.3,184.1z"/>
	<g id="Social_icons_1_">
		<path fill="#FFFFFF" d="M473.5-205.5c0,0,0,0,0-0.2c0-1.1,0.2-1.8,1.7-1.8c1.3,0,2.6,0,2.6,0l0.1-3.8c0,0-1.2-0.2-2.8-0.2
			c-4,0-5.7,2.5-5.7,5.2c0,1.8,0,3.5,0,3.5h-2.9v4.1h2.9v11.3h4.2v-11.2h4.2l0.2-4.1h-4.3v-2.8H473.5z M508.8-209.2
			c-1.2,0-2.2,1-2.2,2.2s1,2.2,2.2,2.2c1.2,0,2.2-1,2.2-2.2S510-209.2,508.8-209.2z M506.9-190.6h3.9V-203h-3.9V-190.6z
			 M520.6-203.4c-1.9,0-3.1,1-3.7,2h-0.1v-1.7h-3.6v12.5h3.9v-6.2c0-1.6,0.3-3.2,2.3-3.2s2,1.9,2,3.3v6.1h3.8v-6.8
			C525.2-200.8,524.5-203.4,520.6-203.4z M570.6-208.4c-0.8,0.5-1.8,0.9-2.8,1.1c-0.8-0.9-1.9-1.4-3.2-1.4c-2.4,0-4.4,2-4.4,4.5
			c0,0.4,0,0.7,0.1,1c-3.6-0.2-6.8-2-9-4.7c-0.4,0.7-0.6,1.4-0.6,2.2c0,1.6,0.8,2.9,1.9,3.7c-0.7,0-1.4-0.2-2-0.6c0,0,0,0,0,0.1
			c0,2.2,1.5,4,3.5,4.4c-0.4,0.1-0.8,0.2-1.1,0.2s-0.6,0-0.8-0.1c0.6,1.8,2.2,3.1,4.1,3.1c-1.5,1.2-3.4,1.9-5.4,1.9
			c-0.4,0-0.7,0-1-0.1c1.9,1.3,4.2,2,6.7,2c8,0,12.4-6.8,12.4-12.7c0-0.2,0-0.4,0-0.6c0.9-0.6,1.6-1.4,2.2-2.3
			c-0.8,0.4-1.6,0.6-2.5,0.7C569.5-206.5,570.2-207.4,570.6-208.4z M607.9-209.8c-0.4,0-5.3,0-5.3,0s-5.4,0.1-5.4,4.8
			c0,4.6,4.7,4.1,4.7,4.1s0,0.7,0,1.2s0.6,0.3,0.7,1.3c-0.3,0-6.6-0.2-6.6,4c0,4.2,5.5,4,5.5,4s6.4,0.3,6.4-4.9
			c0-3.1-3.6-4.1-3.6-5.4s2.7-1.6,2.7-4.6c0-1.8-0.2-2.9-1.5-3.5C605.5-209.2,607.9-208.9,607.9-209.8z M606.2-195
			c0.1,1.6-1.6,3.1-3.8,3.2c-2.2,0.2-4.1-1-4.2-2.7c-0.1-1.6,1.6-3.1,3.8-3.2C604.2-197.8,606.1-196.6,606.2-195z M603-202
			c-1.3,0.4-2.8-0.9-3.3-2.7c-0.5-1.9,0.2-3.7,1.5-4c1.3-0.4,2.8,0.9,3.3,2.7C604.9-204.2,604.3-202.4,603-202z M614.2-209.8h-1.1
			v3.8h-3.7v1.1h3.7v3.8h1.1v-3.8h3.7v-1.1h-3.7V-209.8z M656.4-209.6H641c-1.3,0-2.3,1-2.3,2.3v15.5c0,1.3,1,2.3,2.3,2.3h15.4
			c1.3,0,2.3-1,2.3-2.3v-15.5C658.7-208.5,657.6-209.6,656.4-209.6z M648.6-203.4c2.1,0,3.9,1.7,3.9,3.9c0,2.1-1.7,3.9-3.9,3.9
			c-2.1,0-3.9-1.7-3.9-3.9C644.8-201.6,646.5-203.4,648.6-203.4z M656.4-192.5c0,0.4-0.3,0.8-0.8,0.8h-13.9c-0.4,0-0.8-0.3-0.8-0.8
			v-8.5h1.7c-0.1,0.5-0.2,1-0.2,1.6c0,3.4,2.8,6.2,6.2,6.2c3.4,0,6.2-2.8,6.2-6.2c0-0.5-0.1-1.1-0.2-1.6h1.7L656.4-192.5
			C656.3-192.5,656.4-192.5,656.4-192.5z M656.4-204.1c0,0.4-0.3,0.8-0.8,0.8h-2.3c-0.4,0-0.8-0.3-0.8-0.8v-2.3
			c0-0.4,0.3-0.8,0.8-0.8h2.3c0.4,0,0.8,0.3,0.8,0.8V-204.1z"/>
	</g>
	<g>
		<g>
			<path fill="#FFFFFF" d="M455-178.4h-2v2h2V-178.4z M459-171.4h-2v2h2V-171.4z M463-178.4h-2v2h2V-178.4z M462-171.4h-2v2h2
				V-171.4z M459-168.4h-2v2h2V-168.4z M465-178.4h-1v3h-4v-3h-4v3h-4v-3h-1c-0.6,0-1,0.4-1,1v14c0,0.6,0.4,1,1,1h14
				c0.6,0,1-0.4,1-1v-14C466-178,465.6-178.4,465-178.4z M464-164.4h-12v-9h12V-164.4z M456-168.4h-2v2h2V-168.4z M456-171.4h-2v2h2
				V-171.4z M462-168.4h-2v2h2V-168.4z"/>
		</g>
	</g>
	<g>
		<g>
			<path fill="#FF2743" d="M486.3-175.2l-3.4-3.4c-0.3-0.3-0.8-0.3-1.1,0l0,0c-0.3,0.3-0.3,0.8,0,1.1l0.8,0.8l-1,1
				c-1.7-1.3-3.7-1.9-5.7-1.9c-2.4,0-4.8,0.9-6.6,2.7c-3.7,3.7-3.7,9.6,0,13.3c1.8,1.8,4.2,2.7,6.6,2.7s4.8-0.9,6.6-2.7
				c3.4-3.4,3.6-8.6,0.8-12.3l1-1l0.8,0.8c0.3,0.3,0.8,0.3,1.1,0C486.6-174.3,486.6-174.9,486.3-175.2z M480.7-163.3
				c-1.3,1.3-3,2-4.9,2c-1.8,0-3.6-0.7-4.9-2c-2.7-2.7-2.7-7,0-9.7c1.3-1.3,3-2,4.9-2c1.8,0,3.6,0.7,4.9,2c1.3,1.3,2,3,2,4.9
				C482.7-166.3,482-164.6,480.7-163.3z M474-167.5c0,0.9,0.8,1.9,1.9,1.9c1,0,1.9-1,1.9-1.9c0-0.9-1.9-5.6-1.9-5.6
				S474-168.4,474-167.5z"/>
		</g>
	</g>
	<path fill="#FF2743" d="M491.2-80c-2.4-2.4-4.2-4.2-4.2-4.2l-15.9,15.9L487-52.4c0,0,1.8-1.8,4.2-4.2l-11.4-11.8L491.2-80z"/>
	<path fill="#FF2743" d="M564.6-60.4c2.4-2.4,4.2-4.2,4.2-4.2L553-80.5l-15.9,15.9c0,0,1.8,1.8,4.2,4.2l11.8-11.4L564.6-60.4z"/>
	<g id="Social_Icons_1_">
		<g id="email">
			<path fill="#FFFFFF" d="M584.1-141.9h-29.9c-1.9,0-3.4,1.5-3.4,3.4v20.6c0,1.9,1.5,3.4,3.4,3.4H584c1.9,0,3.4-1.5,3.4-3.4v-20.6
				C587.5-140.4,586-141.9,584.1-141.9z M553.9-116.7l-0.8-0.8l9.5-9.5l0.8,0.8L553.9-116.7z M584.4-116.7l-9.5-9.5l0.8-0.8l9.5,9.5
				L584.4-116.7z M570.3-124.4v0.8H568v-0.8l-14.9-13.8l1.5-1.5l14.6,13.5l14.6-13.5l1.5,1.5L570.3-124.4z"/>
		</g>
		<g id="Shape_2">
			<path fill="#FFFFFF" d="M466.5-116.5h5.3v-17h-5.3V-116.5z M469.1-141.9c-1.7,0-3.1,1.4-3.1,3.1s1.4,3.1,3.1,3.1s3.1-1.4,3.1-3.1
				C472.2-140.6,470.8-141.9,469.1-141.9z M485.3-133.9c-2.6,0-4.3,1.4-5,2.7h-0.1v-2.3h-5.1v17h5.3v-8.4c0-2.2,0.4-4.4,3.2-4.4
				c2.7,0,2.8,2.5,2.8,4.5v8.3h5.3v-9.3C491.7-130.4,490.7-133.9,485.3-133.9z"/>
		</g>
		<g id="Shape_3">
			<path fill="#FFFFFF" d="M520.8-139.1c-1.1,0.5-2.2,0.8-3.4,1c1.2-0.8,2.2-2,2.6-3.4c-1.2,0.7-2.4,1.2-3.8,1.5
				c-1.1-1.2-2.7-1.9-4.4-1.9c-3.3,0-6,2.7-6,6.1c0,0.5,0.1,0.9,0.2,1.4c-5-0.3-9.4-2.7-12.4-6.4c-0.5,0.9-0.8,1.9-0.8,3.1
				c0,2.1,1.1,4,2.7,5.1c-1,0-1.9-0.3-2.7-0.8v0.1c0,3,2.1,5.4,4.8,6c-0.5,0.1-1,0.2-1.6,0.2c-0.4,0-0.8,0-1.1-0.1
				c0.8,2.4,3,4.2,5.6,4.2c-2.1,1.6-4.6,2.6-7.4,2.6c-0.5,0-1,0-1.4-0.1c2.7,1.7,5.8,2.7,9.2,2.7c11,0,17.1-9.3,17.1-17.4
				c0-0.3,0-0.5,0-0.8C519-136.8,520-137.8,520.8-139.1z"/>
		</g>
		<g id="Shape_4">
			<path fill="#FFFFFF" d="M537-141.9c-0.6,0-7.3,0-7.3,0s-7.4,0.2-7.4,6.5s6.5,5.6,6.5,5.6s0,1,0,1.6c0,0.6,0.9,0.4,1,1.7
				c-0.4,0-9-0.2-9,5.5s7.6,5.5,7.6,5.5s8.7,0.4,8.7-6.7c0-4.3-5-5.6-5-7.4c0-1.7,3.8-2.2,3.8-6.3c0-2.4-0.2-3.9-2.1-4.7
				C533.7-141.2,537-140.8,537-141.9z M534.7-121.8c0.1,2.2-2.2,4.2-5.2,4.4c-3,0.2-5.6-1.4-5.7-3.6c-0.1-2.2,2.2-4.2,5.2-4.4
				C531.9-125.6,534.5-124,534.7-121.8z M530.2-131.4c-1.8,0.5-3.8-1.2-4.5-3.7s0.2-5,2-5.5s3.8,1.2,4.5,3.7
				C532.9-134.3,532-131.9,530.2-131.4z M545.7-136.8v-5.1h-1.5v5.1h-5.1v1.5h5.1v5.1h1.5v-5.1h5.1v-1.5H545.7z"/>
		</g>
		<g id="Shape_1">
			<path fill="#FFFFFF" d="M459.9-130v-4c0-1.5,0.3-2.5,2.3-2.5c1.8,0,3.5,0,3.5,0l0.1-5.2c0,0-1.6-0.2-3.9-0.2
				c-5.5,0-7.9,3.4-7.9,7.1c0,2.5,0,4.7,0,4.7h-4v5.5h4v15.6h5.8v-15.4h5.7l0.3-5.5L459.9-130L459.9-130L459.9-130z"/>
		</g>
	</g>
	<path fill-rule="evenodd" clip-rule="evenodd" fill="#FF2743" d="M529.5-6.5c-0.1-0.5-0.3-1.2-0.5-1.9c0.1,0,0.2-0.1,0.3-0.1
		c2.2,2.6,2.4,6,3,9.3c0.1-0.5,0.2-0.9,0.3-1.4c0.1,0,0.1,0,0.2,0c0.1,0.2,0.2,0.4,0.2,0.5c0.1,5.8-0.9,11.3-4.2,16.1
		c-2.9,4.3-7.2,6.6-12.2,7.4c-4.3,0.7-8.5,0.3-12.4-1.7c-5.6-2.9-8.8-7.7-10.2-13.7c0-0.1-0.1-0.2-0.1-0.4c-0.1,0.1-0.1,0.2-0.4,0.5
		c0-1.9,0-3.6,0-5.3c0,0-0.1,0-0.4,0.1c0.1-0.6,0.2-1.3,0.4-1.8c0.6-1.7,1.3-3.4,1.9-5.1c0.2-0.4,0.2-0.9,0.2-1.4
		c0-1.8,0.3-3.4,1.2-4.9c0.2-0.4,0.6-0.7,0.9-1.1c0.4,0.9,0.6,1.6,1,2.5c4.5-4.6,9.8-6.7,16-6.2C520.8-14.2,525.6-11.1,529.5-6.5z
		 M522.3-11.3c-8.4-5-18.4-2.2-22.9,3.6c0.5,0.1,0.9,0.2,1.4,0.2c1,0,2.1,0,3.1,0c0.4,0,0.8-0.1,1.1-0.3c1.2-1,2.7-1.5,4.2-1.8
		c0.2,0,0.5,0.1,0.8,0.1c-0.7,0.8-1.4,1.3-1.9,2.1c-1.2,1.8-0.4,3.4,1.8,3.5c0.6,0,1.1,0,1.7,0c1.2,0,1.5,0.5,0.9,1.6
		c-0.2,0.3-0.5,0.6-0.8,0.8c-0.7,0.5-1.4,1-2.2,1.4c-0.6,0.4-0.7,0.9-0.6,1.5c0.1,0.6,0.1,1.2,0.2,2c-0.5-0.2-0.8-0.2-1-0.3
		c-0.7-0.3-1.3-0.3-1.8,0.4c-0.5,0.6-0.4,1.3,0,2c0.9,1.5,3.1,2.4,4.8,1.9c0.8-0.2,1.5-0.6,2.3-0.8c1.5-0.4,2.7,0,3.8,1.1
		c0.6,0.6,0.3,1.4-0.4,1.4c-1.1,0-1.8,0.7-2.7,1.1c-0.9,0.5-1.9,0.9-2.9,1.3c-0.7,0.2-1.5,0.2-2.5,0.3c2.6,1.6,5,3,8.1,2.4
		c3-0.6,4.7-2.8,6.4-5.1c0.1,0,0.2,0.1,0.2,0.1c-0.1,0.8-0.3,1.6-0.4,2.4c1.8-2.4,1.7-5.2,1.6-8c0.1,0,0.1-0.1,0.2-0.1
		c0.4,0.4,0.8,0.7,1.3,1.1c0.6-2.4,0.5-4.7,0.1-7.2c0.3,0.1,0.4,0.1,0.5,0.2c0.3,0.2,0.6,0.5,0.9,0.8c-1.4-4.1-4.5-6.1-8.4-7.1
		c0-0.1,0.1-0.2,0.1-0.3c1.1-0.2,2.2-0.4,3.2-0.6c0-0.1,0-0.2,0-0.3c-1.6-0.5-3.2-1-4.9-1.4C519.1-11.9,520.5-11.5,522.3-11.3z"/>
	<g>
		<g>
			<path fill="#FF2743" d="M555.8-14.6c-0.2,0-0.4,0-0.6,0c-0.4-1.7-2.1-3-4.1-3c-2.3,0-4.2,1.8-4.2,3.9c0,0.4,0.1,0.7,0.2,1
				C540-9.4,535.1-2.3,535.1,6c0,11.4,9.2,20.6,20.6,20.6c11.4,0,20.6-9.2,20.6-20.6C576.4-5.4,567.1-14.6,555.8-14.6z M551-16
				c1.8,0,2.2,1,2.2,1.5l-4.9,1C548.4-14.7,549.5-16,551-16z M559.2,20.7l-1.2-2V21c-0.7,0.1-1.5,0.2-2.2,0.2
				c-7.2,0-13.3-5.1-14.8-11.8l1.6-0.7l-1.7-0.3c-0.1-0.8-0.2-1.6-0.2-2.4c0-7.2,5-13.2,11.7-14.7l1.1,1.9V-9
				c0.8-0.1,1.6-0.2,2.4-0.2c7,0,13,4.8,14.7,11.3l-2,1.1h2.2c0.2,0.9,0.2,1.8,0.2,2.7C570.9,13.2,565.9,19.2,559.2,20.7z
				 M565.6,3.8c0,0-5.3,0.1-5.4,0l0,0c-0.1-0.2-0.2-0.4-0.3-0.6l5.3-7.6l-7.1,6c-0.5-0.3-1.2-0.5-1.8-0.6l-2.4-4.5l-0.4,4.9
				c-0.5,0.3-1,0.6-1.4,1l0,0l-2.4-0.6l1.7,1.5c-0.4,0.6-0.7,1.4-0.7,2.2v0l-4.9,2.4h5.3l0,0c0.1,0.4,0.3,0.7,0.6,1l-5.4,7.7
				l7.1-6.1c0.7,0.4,1.5,0.6,2.4,0.6l2.1,4.5v-5h0c0.7-0.3,1.4-0.8,1.8-1.4l2.6,0.9l-1.9-2c0.2-0.5,0.3-1,0.4-1.5L565.6,3.8z
				 M552.1,8.1c-0.4-0.6-0.6-1.3-0.6-2.1c0-2.3,1.9-4.2,4.2-4.2c0.6,0,1.2,0.1,1.7,0.4l-2.8,2.3L552.1,8.1z M555.7,10.1
				c-0.6,0-1.1-0.1-1.6-0.3l3.1-2.7l2.2-3.1c0.3,0.6,0.5,1.3,0.5,2C559.8,8.3,558,10.1,555.7,10.1z"/>
		</g>
	</g>
	<path fill="#FF2743" d="M606.3,9.1h9.4c0.1-0.7,0.2-1.4,0.1-2.1c-0.4-7.4-4.9-13.5-11.3-15.7l0.5,0.1c0,0,11.9-5.3,7.9,6.5l0.5,0.8
		c0,0,3.5-9-2.1-10.5C606.8-13,600-9.6,600-9.6l0.2,0.1c-0.4,0-0.8-0.1-1.3-0.1c-8.4,0-15.3,5.8-16.7,13.8c0.9-1.1,4.4-5.1,8.2-7.7
		c0,0-6.5,5.7-8.4,10.5c0,0-2.4,4.2-3.2,7.4c-0.5,1.9-1.7,8.8,3.2,9.6c5.1,0.8,9.2-1.9,9.2-1.9l-0.1-0.1c2.3,1.2,5,1.9,7.8,1.9
		c7.5,0,13.8-4.9,16-11.6h-9.7c-1.3,2.7-3.7,3.9-6.4,3.9c-3.7,0-6.3-2.7-7-7.1h12.4H606.3z M590.1,21.5c0,0-2.8,1.4-5.2,1.5
		c-7.3-0.1-1.8-10.3-1.8-10.3l0,0C584.4,16.4,586.9,19.5,590.1,21.5L590.1,21.5z M599-1.7c4.2,0,6.2,2.5,6.7,6.1H592
		C592.7,0.7,595.1-1.7,599-1.7z"/>
	<g>
		<g>
			<path fill="#FF2743" d="M470-3.7c0.3,0,17.8-0.1,17.8-0.1c-3.2-6.6-10-11.3-17.9-11.3c-6.4,0-12,3-15.7,7.6l7,12
				C461.3-0.2,465.2-3.7,470-3.7z M470,13.5c-3.8,0-7-2.4-8.2-5.7l-0.1,0l-8.3-14.3c-2.2,3.2-3.4,7-3.4,11.2
				c0,10.1,7.5,18.4,17.2,19.7l6.8-12C472.8,13.2,471.4,13.5,470,13.5z M488.4-2.8h-13.7c2.5,1.6,4.1,4.3,4.1,7.5
				c0,2.2-0.8,4.1-2.1,5.7l-8.1,14.3c0.4,0,0.9,0,1.3,0c11,0,19.9-8.9,19.9-19.9C489.8,2.1,489.3-0.5,488.4-2.8z M462.5,4.7
				c0,4.1,3.3,7.4,7.4,7.4c4.1,0,7.4-3.3,7.4-7.4c0-4.1-3.3-7.4-7.4-7.4C465.8-2.7,462.5,0.6,462.5,4.7z"/>
		</g>
	</g>
	<g>
		<path fill="#FFFFFF" d="M462.5,58c-6.9,0-12.5,5.6-12.5,12.5S455.6,83,462.5,83S475,77.4,475,70.5S469.4,58,462.5,58z M462.5,80.5
			c-5.5,0-10-4.5-10-10c0-5.5,4.5-10,10-10c5.5,0,10,4.5,10,10C472.5,76,468,80.5,462.5,80.5z"/>
		<path fill="#FFFFFF" d="M467.8,65.2c-0.4-0.4-1-0.4-1.4,0l-3.9,3.9l-3.9-3.9c-0.4-0.4-1-0.4-1.4,0s-0.4,1,0,1.4l3.9,3.9l-3.9,3.9
			c-0.4,0.4-0.4,1,0,1.4s1,0.4,1.4,0l3.9-3.9l3.9,3.9c0.4,0.4,1,0.4,1.4,0s0.4-1,0-1.4l-3.9-3.9l3.9-3.9
			C468.2,66.2,468.2,65.6,467.8,65.2z"/>
	</g>
	<g>
		<path fill="#231F20" d="M488.5,58c-6.9,0-12.5,5.6-12.5,12.5S481.6,83,488.5,83S501,77.4,501,70.5S495.4,58,488.5,58z M488.5,80.5
			c-5.5,0-10-4.5-10-10c0-5.5,4.5-10,10-10c5.5,0,10,4.5,10,10C498.5,76,494,80.5,488.5,80.5z"/>
		<path fill="#231F20" d="M493.8,65.2c-0.4-0.4-1-0.4-1.4,0l-3.9,3.9l-3.9-3.9c-0.4-0.4-1-0.4-1.4,0s-0.4,1,0,1.4l3.9,3.9l-3.9,3.9
			c-0.4,0.4-0.4,1,0,1.4s1,0.4,1.4,0l3.9-3.9l3.9,3.9c0.4,0.4,1,0.4,1.4,0s0.4-1,0-1.4l-3.9-3.9l3.9-3.9
			C494.2,66.2,494.2,65.6,493.8,65.2z"/>
	</g>
	<g>
		<polygon fill-rule="evenodd" clip-rule="evenodd" fill="#FFFFFF" points="467.8,138.8 480.8,149.7 493.8,138.8 493.8,138 
			467.8,138 		"/>
		<path fill-rule="evenodd" clip-rule="evenodd" fill="#FFFFFF" d="M480,118L480,118c-16.6,0-30,13.4-30,30c0,16.6,13.4,30,30,30h0
			c16.6,0,30-13.4,30-30C510,131.4,496.6,118,480,118z M496.8,159.1c0,1.1-0.9,2-2,2h-28c-1.1,0-2-0.9-2-2v-22c0-1.1,0.9-2,2-2h28
			c1.1,0,2,0.9,2,2V159.1z"/>
		<path fill-rule="evenodd" clip-rule="evenodd" fill="#FFFFFF" d="M480.8,153c-0.5,0-0.9-0.2-1.3-0.5l-11.7-9.8v15.3h26v-15.3
			l-11.7,9.8C481.7,152.9,481.3,153,480.8,153z"/>
	</g>
	<g>
		<path fill-rule="evenodd" clip-rule="evenodd" fill="#FFFFFF" d="M554.2,155.7l-5.2-2.7c-0.2-0.1-0.5,0-0.6,0.1l-0.6,0.6
			c-1.5,1.4-3.8,1.7-5.6,0.8c-2.3-1.2-4.2-3.1-5.4-5.4c-0.9-1.8-0.6-4.1,0.8-5.6l0.6-0.6c0.1-0.1,0.1-0.2,0.1-0.3
			c0-0.1,0-0.2-0.1-0.2l-2.7-5.2c-0.3-0.7-1-1.1-1.8-1.1c-0.4,0-0.9,0.1-1.2,0.4l-1.6,1.2c-1.5,1.1-2.1,3.1-1.5,4.8
			c2.9,9,10,16.2,18.9,19.4c1.6,0.6,3.4,0.1,4.6-1l1.8-1.8c0.4-0.4,0.6-0.9,0.6-1.4C555.3,156.8,554.8,156.1,554.2,155.7z"/>
		<path fill-rule="evenodd" clip-rule="evenodd" fill="#FFFFFF" d="M541.4,118L541.4,118c-16.6,0-30,13.4-30,30
			c0,16.6,13.4,30,30,30h0c16.6,0,30-13.4,30-30C571.4,131.4,558,118,541.4,118z M556.8,161l-1.8,1.8c-1.4,1.4-3.3,2.2-5.2,2.2
			c-0.8,0-1.7-0.1-2.5-0.4c-9.8-3.5-17.5-11.4-20.7-21.3c-1-3,0.1-6.2,2.5-8.1l1.6-1.2c0.9-0.7,1.9-1,3-1c1.9,0,3.6,1,4.5,2.7
			l2.7,5.2c0.3,0.5,0.4,1,0.4,1.6c0,0.9-0.3,1.7-0.9,2.4l-0.6,0.6c-0.6,0.6-0.7,1.5-0.3,2.2c0.9,1.8,2.3,3.2,4.1,4.1
			c0.7,0.4,1.6,0.2,2.2-0.3l0.6-0.6c1.1-1,2.7-1.2,4-0.5l5.2,2.7c1.7,0.9,2.7,2.6,2.7,4.5C558.3,158.9,557.8,160.1,556.8,161z"/>
	</g>
	<g>
		<polygon fill-rule="evenodd" clip-rule="evenodd" fill="#FFFFFF" points="589.6,157 595.6,157 595.6,160.8 599.3,157 615.6,157 
			615.6,138 589.6,138 		"/>
		<path fill-rule="evenodd" clip-rule="evenodd" fill="#FFFFFF" d="M602.6,118L602.6,118c-16.6,0-30,13.4-30,30
			c0,16.6,13.4,30,30,30h0c16.6,0,30-13.4,30-30C632.6,131.4,619.2,118,602.6,118z M618.6,158c0,1.1-0.9,2-2,2h-16l-5,5h-1
			c-1.1,0-2-0.9-2-2v-3h-4c-1.1,0-2-0.9-2-2v-21c0-1.1,0.9-2,2-2h28c1.1,0,2,0.9,2,2V158z"/>
	</g>
	<path fill="#FFFFFF" d="M451.4,182c-0.8,0-1.4,0.6-1.4,1.4v15.4c0,0.8,0.6,1.4,1.4,1.4H471c0.8,0,1.4-0.6,1.4-1.4v-15.4
		c0-0.8-0.6-1.4-1.4-1.4H451.4z M470.3,184.1v0.6l-9.1,7.7l-9.1-7.7v-0.6H470.3z M452.1,198.1v-10.7l8.2,6.9
		c0.3,0.2,0.6,0.3,0.9,0.3c0.3,0,0.6-0.1,0.9-0.3l8.2-6.9v10.7H452.1z"/>
	<path fill-rule="evenodd" clip-rule="evenodd" fill="#FFFFFF" d="M461.7,226.7l-5,5l0,0c-0.2,0.2-0.4,0.3-0.7,0.3
		c-0.3,0-0.5-0.1-0.7-0.3l0,0l-5-5l0,0c-0.2-0.2-0.3-0.4-0.3-0.7c0-0.6,0.4-1,1-1c0.3,0,0.5,0.1,0.7,0.3l0,0l3.3,3.3V219
		c0-0.6,0.4-1,1-1c0.6,0,1,0.4,1,1v9.6l3.3-3.3l0,0c0.2-0.2,0.4-0.3,0.7-0.3c0.6,0,1,0.4,1,1C462,226.3,461.9,226.5,461.7,226.7
		L461.7,226.7z"/>
	<path fill-rule="evenodd" clip-rule="evenodd" d="M475.7,226.7l-5,5l0,0c-0.2,0.2-0.4,0.3-0.7,0.3c-0.3,0-0.5-0.1-0.7-0.3l0,0l-5-5
		l0,0c-0.2-0.2-0.3-0.4-0.3-0.7c0-0.6,0.4-1,1-1c0.3,0,0.5,0.1,0.7,0.3l0,0l3.3,3.3V219c0-0.6,0.4-1,1-1c0.6,0,1,0.4,1,1v9.6
		l3.3-3.3l0,0c0.2-0.2,0.4-0.3,0.7-0.3c0.6,0,1,0.4,1,1C476,226.3,475.9,226.5,475.7,226.7L475.7,226.7z"/>
	<path fill-rule="evenodd" clip-rule="evenodd" fill="#F70C36" d="M458.7,232.3l5,5l0,0c0.2,0.2,0.3,0.4,0.3,0.7
		c0,0.3-0.1,0.5-0.3,0.7l0,0l-5,5l0,0c-0.2,0.2-0.4,0.3-0.7,0.3c-0.6,0-1-0.4-1-1c0-0.3,0.1-0.5,0.3-0.7l0,0l3.3-3.3H451
		c-0.6,0-1-0.4-1-1c0-0.6,0.4-1,1-1h9.6l-3.3-3.3l0,0c-0.2-0.2-0.3-0.4-0.3-0.7c0-0.6,0.4-1,1-1C458.3,232,458.5,232.1,458.7,232.3
		L458.7,232.3z"/>
	<g>
		<path fill-rule="evenodd" clip-rule="evenodd" fill="#FFFFFF" d="M450,290c0,0.3,0,0.7,0,1c7,0,14,0,21,0c1.3-11.7,2.7-23.3,4-35
			c-4,0-8,0-12,0C458.7,267.3,454.3,278.7,450,290z"/>
		<path fill-rule="evenodd" clip-rule="evenodd" fill="#FFFFFF" d="M487,256c-3.7,11.3-7.3,22.7-11,34c0,0.3,0,0.7,0,1
			c7,0,14,0,21,0c1.3-11.7,2.7-23.3,4-35C496.3,256,491.7,256,487,256z"/>
	</g>
	<g>
		<g>
			<path fill="#FFFFFF" d="M457,300v36h47v-36H457z M497,292h-47v36h5v-30h42V292z"/>
		</g>
	</g>
	<path fill="#FFFFFF" d="M477.1,351.7c-3-1.9-8-5.1-11-7.1l-10.6-6.8c-3-1.9-5.5-0.5-5.5,3.1v14.4c0,3.6,0,9.6,0,13.3V383
		c0,3.6,2.5,5,5.5,3.1l10.6-6.8c3-1.9,8-5.1,11-7.1l10.6-6.8c3-1.9,3-5.1,0-7.1L477.1,351.7z"/>
	<path fill-rule="evenodd" clip-rule="evenodd" fill="#FFFFFF" d="M467.9,394.9L467.9,394.9l-2,2l0,0l-6,6l0,0
		c-0.4,0.4-0.9,0.6-1.4,0.6s-1.1-0.2-1.4-0.6l0,0l-4-4l0,0c-0.4-0.4-0.6-0.9-0.6-1.4c0-1.1,0.9-2,2-2c0.6,0,1.1,0.2,1.4,0.6l0,0
		l2.6,2.6l4.6-4.6l2-2l0,0c0.4-0.4,0.9-0.6,1.4-0.6c1.1,0,2,0.9,2,2C468.5,394.1,468.3,394.6,467.9,394.9z"/>
	<path fill="#FFFFFF" d="M466,425c-1.1,0-2,0.9-2,2v22c0,1.1,0.9,2,2,2h28c1.1,0,2-0.9,2-2v-22c0-1.1-0.9-2-2-2H466z M493,428v0.8
		l-13,10.9l-13-10.9V428H493z M467,448v-15.3l11.7,9.8c0.4,0.3,0.8,0.5,1.3,0.5c0.5,0,0.9-0.2,1.3-0.5l11.7-9.8V448H467z"/>
	<path fill="#FFFFFF" d="M547.5,454c-0.8,0-1.7-0.1-2.5-0.4c-9.8-3.5-17.5-11.4-20.7-21.3c-1-3,0.1-6.2,2.5-8.1l1.6-1.2
		c0.9-0.7,1.9-1,3-1c1.9,0,3.6,1,4.4,2.7l2.7,5.2c0.3,0.5,0.4,1,0.4,1.6c0,0.9-0.3,1.7-0.9,2.4l-0.6,0.6c-0.6,0.6-0.7,1.5-0.3,2.2
		c0.9,1.8,2.3,3.2,4.1,4.1c0.7,0.4,1.6,0.2,2.2-0.3l0.6-0.6c1.1-1,2.7-1.2,4-0.5l5.2,2.7c1.7,0.9,2.7,2.6,2.7,4.4
		c0,1.3-0.5,2.6-1.4,3.5l-1.8,1.8C551.4,453.2,549.5,454,547.5,454z M531.5,425c-0.4,0-0.9,0.1-1.2,0.4l-1.6,1.2
		c-1.5,1.1-2.1,3-1.5,4.8c2.9,9,10,16.2,18.9,19.3c1.6,0.6,3.4,0.1,4.6-1l1.8-1.8c0.4-0.4,0.6-0.9,0.6-1.4c0-0.8-0.4-1.4-1.1-1.8
		l-5.2-2.7c-0.2-0.1-0.5,0-0.6,0.1l-0.6,0.6c-1.5,1.4-3.8,1.7-5.6,0.8c-2.3-1.2-4.2-3.1-5.4-5.4c-0.9-1.8-0.6-4.1,0.8-5.6l0.6-0.6
		c0.1-0.1,0.1-0.2,0.1-0.3c0-0.1,0-0.2-0.1-0.2l-2.7-5.2C532.9,425.4,532.2,425,531.5,425z"/>
	<path fill-rule="evenodd" clip-rule="evenodd" fill="#FFFFFF" d="M614,448h-16l-5,5h-1c-1.1,0-2-0.9-2-2v-3h-4c-1.1,0-2-0.9-2-2
		v-21c0-1.1,0.9-2,2-2h28c1.1,0,2,0.9,2,2v21C616,447.1,615.1,448,614,448z M613,426h-26v19h6v3.8l3.8-3.8H613V426z"/>
	<g>
		<g>
			<g>
				<circle fill="none" stroke="#FF2743" stroke-width="2" stroke-miterlimit="10" cx="712" cy="-196" r="25"/>
			</g>
		</g>
		<path fill-rule="evenodd" clip-rule="evenodd" fill="#FF2743" d="M710.3-191.3l-5-5l0,0c-0.2-0.2-0.3-0.4-0.3-0.7
			c0-0.3,0.1-0.5,0.3-0.7l0,0l5-5l0,0c0.2-0.2,0.4-0.3,0.7-0.3c0.6,0,1,0.4,1,1c0,0.3-0.1,0.5-0.3,0.7l0,0l-3.3,3.3h9.6
			c0.6,0,1,0.4,1,1c0,0.6-0.4,1-1,1h-9.6l3.3,3.3l0,0c0.2,0.2,0.3,0.4,0.3,0.7c0,0.6-0.4,1-1,1C710.7-191,710.5-191.1,710.3-191.3
			L710.3-191.3z"/>
	</g>
	<path fill="#FFFFFF" d="M631-79.1c-2.4-2.4-4.2-4.2-4.2-4.2l-15.9,15.8l15.9,15.9c0,0,1.8-1.8,4.2-4.2l-11.4-11.8L631-79.1z"/>
</g>
</svg>
